<svg viewBox="0 0 595.3 841.9" version="1.1" 
  xmlns="http://www.w3.org/2000/svg">
  <g fill="#565656">
    <rect x="33.4" y="78.2" width="528.4" height="1"/>
    <rect x="33.4" y="109.4" width="528.4" height="1"/>
    <rect x="33.4" y="140.5" width="528.4" height="1"/>
    <rect x="33.4" y="171.7" width="528.4" height="1"/>
    <rect x="33.4" y="202.9" width="528.4" height="1"/>
    <rect x="33.4" y="234.1" width="528.4" height="1"/>
    <rect x="33.4" y="265.3" width="528.4" height="1"/>
    <rect x="33.4" y="296.4" width="528.4" height="1"/>
    <rect x="33.4" y="327.6" width="528.4" height="1"/>
    <rect x="33.4" y="358.8" width="528.4" height="1"/>
    <rect x="33.4" y="390" width="528.4" height="1"/>
    <rect x="33.4" y="421.2" width="528.4" height="1"/>
    <rect x="33.4" y="452.4" width="528.4" height="1"/>
    <rect x="33.4" y="483.5" width="528.4" height="1"/>
    <rect x="33.4" y="514.7" width="528.4" height="1"/>
    <rect x="33.4" y="545.9" width="528.4" height="1"/>
    <rect x="33.4" y="577.1" width="528.4" height="1"/>
    <rect x="33.4" y="608.2" width="528.4" height="1"/>
    <rect x="33.4" y="639.4" width="528.4" height="1"/>
    <rect x="33.4" y="670.6" width="528.4" height="1"/>
    <rect x="33.4" y="701.8" width="528.4" height="1"/>
    <rect x="33.4" y="733" width="528.4" height="1"/>
    <rect x="33.4" y="764.1" width="528.4" height="1"/>
  </g>
</svg>
